<svg width="734" height="734" viewBox="0 0 734 734" fill="none" xmlns="http://www.w3.org/2000/svg">
<path d="M734 561.36H0V561.727H734V561.36Z" fill="#EBEBEB"/>
<path d="M660.455 584.989H611.832V585.356H660.455V584.989Z" fill="#EBEBEB"/>
<path d="M486.231 588.973H473.47V589.34H486.231V588.973Z" fill="#EBEBEB"/>
<path d="M610.362 571.357H582.188V571.724H610.362V571.357Z" fill="#EBEBEB"/>
<path d="M140.417 573.823H77.0098V574.19H140.417V573.823Z" fill="#EBEBEB"/>
<path d="M162.785 573.823H153.488V574.19H162.785V573.823Z" fill="#EBEBEB"/>
<path d="M330.516 580.023H193V580.39H330.516V580.023Z" fill="#EBEBEB"/>
<path d="M347.937 495.89H64.4672C59.8474 495.89 56.0879 492.131 56.0879 487.511V89.0488C56.0879 84.429 59.8474 80.6694 64.4672 80.6694H347.937C352.555 80.6694 356.314 84.429 356.314 89.0488V487.511C356.314 492.131 352.555 495.89 347.937 495.89ZM64.4672 81.0379C60.0486 81.0379 56.4549 84.6316 56.4549 89.0502V487.512C56.4549 491.931 60.0486 495.525 64.4672 495.525H347.937C352.354 495.525 355.947 491.931 355.947 487.512V89.0488C355.947 84.6316 352.354 81.0364 347.937 81.0364L64.4672 81.0379Z" fill="#EBEBEB"/>
<path d="M665.459 495.89H381.991C377.371 495.89 373.613 492.131 373.613 487.511V89.0488C373.613 84.429 377.373 80.6694 381.991 80.6694H665.459C670.08 80.6694 673.838 84.429 673.838 89.0488V487.511C673.84 492.131 670.08 495.89 665.459 495.89ZM381.991 81.0379C377.574 81.0379 373.98 84.6316 373.98 89.0502V487.512C373.98 491.931 377.574 495.525 381.991 495.525H665.459C669.878 495.525 673.471 491.931 673.471 487.512V89.0488C673.471 84.6316 669.878 81.0364 665.459 81.0364L381.991 81.0379Z" fill="#EBEBEB"/>
<path d="M355.755 255.251H147.321V560.843H355.755V255.251Z" fill="#F0F0F0"/>
<path d="M348.387 264.871H154.689V321.311H348.387V264.871Z" fill="#E0E0E0"/>
<path d="M165.692 274.008H154.689V321.311H165.692V274.008Z" fill="#EBEBEB"/>
<path d="M218.898 274.008H207.894V321.311H218.898V274.008Z" fill="#EBEBEB"/>
<path d="M279.295 272.848L268.45 274.717L276.482 321.334L287.327 319.466L279.295 272.848Z" fill="#EBEBEB"/>
<path d="M179.325 280.241H168.322V321.31H179.325V280.241Z" fill="#EBEBEB"/>
<path d="M204.617 280.241H193.614V321.31H204.617V280.241Z" fill="#EBEBEB"/>
<path d="M268.455 280.241H257.452V321.31H268.455V280.241Z" fill="#EBEBEB"/>
<path d="M233.349 278.838L222.607 281.225L231.515 321.316L242.257 318.929L233.349 278.838Z" fill="#EBEBEB"/>
<path d="M188.842 271.659H183.34V321.31H188.842V271.659Z" fill="#EBEBEB"/>
<path d="M254.29 271.659H248.788V321.31H254.29V271.659Z" fill="#EBEBEB"/>
<path d="M154.69 386.688H348.388V330.247H154.69V386.688Z" fill="#E0E0E0"/>
<path d="M337.385 386.688H348.388V339.386H337.385V386.688Z" fill="#EBEBEB"/>
<path d="M284.178 386.688H295.183V339.386H284.178V386.688Z" fill="#EBEBEB"/>
<path d="M215.726 384.818L226.569 386.686L234.601 340.069L223.758 338.2L215.726 384.818Z" fill="#EBEBEB"/>
<path d="M323.75 386.687H334.754V345.618H323.75V386.687Z" fill="#EBEBEB"/>
<path d="M298.458 386.687H309.462V345.618H298.458V386.687Z" fill="#EBEBEB"/>
<path d="M234.62 386.687H245.624V345.618H234.62V386.687Z" fill="#EBEBEB"/>
<path d="M260.821 384.297L271.562 386.683L280.469 346.592L269.729 344.206L260.821 384.297Z" fill="#EBEBEB"/>
<path d="M314.235 386.687H319.737V337.036H314.235V386.687Z" fill="#EBEBEB"/>
<path d="M248.787 386.687H254.289V337.036H248.787V386.687Z" fill="#EBEBEB"/>
<path d="M165.692 339.384H154.689V386.686H165.692V339.384Z" fill="#EBEBEB"/>
<path d="M179.325 345.618H168.322V386.687H179.325V345.618Z" fill="#EBEBEB"/>
<path d="M204.617 345.618H193.614V386.687H204.617V345.618Z" fill="#EBEBEB"/>
<path d="M188.842 337.037H183.34V386.687H188.842V337.037Z" fill="#EBEBEB"/>
<path d="M348.388 395.624H154.689V452.064H348.388V395.624Z" fill="#E0E0E0"/>
<path d="M276.869 404.761H265.865V452.065H276.869V404.761Z" fill="#EBEBEB"/>
<path d="M337.262 403.606L326.417 405.475L334.45 452.092L345.294 450.224L337.262 403.606Z" fill="#EBEBEB"/>
<path d="M237.298 410.994H226.294V452.063H237.298V410.994Z" fill="#EBEBEB"/>
<path d="M262.589 410.994H251.586V452.063H262.589V410.994Z" fill="#EBEBEB"/>
<path d="M326.428 410.994H315.424V452.063H326.428V410.994Z" fill="#EBEBEB"/>
<path d="M291.321 409.59L280.581 411.976L289.488 452.068L300.229 449.681L291.321 409.59Z" fill="#EBEBEB"/>
<path d="M246.814 402.412H241.312V452.063H246.814V402.412Z" fill="#EBEBEB"/>
<path d="M312.261 402.412H306.759V452.063H312.261V402.412Z" fill="#EBEBEB"/>
<path d="M210.667 403.601L199.823 405.47L207.855 452.087L218.699 450.219L210.667 403.601Z" fill="#EBEBEB"/>
<path d="M199.838 410.994H188.833V452.063H199.838V410.994Z" fill="#EBEBEB"/>
<path d="M164.729 409.589L153.988 411.976L162.896 452.067L173.637 449.681L164.729 409.589Z" fill="#EBEBEB"/>
<path d="M185.67 402.412H180.168V452.063H185.67V402.412Z" fill="#EBEBEB"/>
<path d="M111.363 561.645H147.321L147.321 255.251H111.363L111.363 561.645Z" fill="#E0E0E0"/>
<path d="M477.741 553.647H447.189L463.251 422.838C463.931 417.301 468.97 412.812 474.507 412.812H485.007H607.815L588.273 553.647H477.741Z" fill="#F5F5F5"/>
<path d="M574.639 553.647H605.191L621.252 422.838C621.932 417.301 617.995 412.812 612.457 412.812H601.958C596.421 412.812 591.381 417.301 590.702 422.838L574.639 553.647Z" fill="#F0F0F0"/>
<path d="M563.383 553.493L568.919 490.224C569.166 487.398 571.35 485.127 574.164 484.767L576.441 484.477C580.215 483.995 583.144 480.948 583.476 477.157L584.486 465.622C584.9 460.893 581.173 456.827 576.427 456.827H627.485C632.231 456.827 635.958 460.893 635.544 465.622L634.534 477.157C634.203 480.948 631.274 483.995 627.5 484.477L625.223 484.767C622.409 485.127 620.226 487.398 619.979 490.224L614.443 553.493C614.04 558.106 610.177 561.645 605.547 561.645H554.489C559.117 561.645 562.98 558.106 563.383 553.493Z" fill="#E6E6E6"/>
<path d="M422.874 474.384C422.005 464.449 413.686 456.825 403.712 456.825H428.417H448.161C458.135 456.825 466.454 464.449 467.323 474.384L471.711 524.538H427.26L422.874 474.384Z" fill="#E6E6E6"/>
<path d="M383.966 456.825H403.71C413.684 456.825 422.003 464.449 422.872 474.384L427.26 524.537H533.128L537.516 474.383C538.385 464.447 546.704 456.824 556.677 456.824H576.422C581.168 456.824 584.895 460.89 584.481 465.619L583.471 477.154C583.14 480.945 580.211 483.992 576.437 484.474L574.16 484.764C571.346 485.124 569.163 487.395 568.915 490.221L563.379 553.49C562.975 558.103 559.113 561.642 554.483 561.642H405.904C401.274 561.642 397.411 558.103 397.008 553.49L391.472 490.221C391.225 487.395 389.041 485.124 386.228 484.764L383.951 484.474C380.177 483.992 377.248 480.945 376.916 477.154L375.906 465.619C375.492 460.893 379.22 456.825 383.966 456.825Z" fill="#F0F0F0"/>
<path d="M149.969 239.984C149.969 239.984 148.343 229.263 156.163 222.389C163.981 215.514 163.294 211.426 161.06 210.893C158.826 210.36 156.763 217.233 153.327 219.124C153.327 219.124 153.218 209.328 156.709 205.72C160.2 202.111 162.032 192.814 158.71 192.65C155.388 192.487 155.044 198.173 154.357 202.204C153.67 206.235 149.968 211.906 149.968 211.906C149.968 211.906 149.246 203.14 146.989 199.532C144.733 195.924 150.749 187.673 148.428 184.065C146.109 180.457 141.984 187.33 142.327 195.063C142.671 202.797 147.826 211.045 146.624 219.122C146.624 219.122 144.35 213.451 142.308 212.936C140.266 212.421 138.203 208.67 136.829 207.28C135.454 205.89 133.736 210.702 136.829 215.171C139.922 219.639 147.828 231.593 146.625 241.254L149.969 239.984Z" fill="#E6E6E6"/>
<path d="M154.644 235.107L157.204 251.176C157.995 256.138 154.161 260.632 149.136 260.632H146.404C141.379 260.632 137.544 256.138 138.336 251.176L140.896 235.107H154.644Z" fill="#E6E6E6"/>
<path d="M308.362 257.477H316.336V223.198H308.362V257.477Z" fill="#EBEBEB"/>
<path d="M269.805 257.477H277.779V223.198H269.805V257.477Z" fill="#EBEBEB"/>
<path d="M220.194 256.127L228.053 257.481L233.873 223.699L226.015 222.345L220.194 256.127Z" fill="#EBEBEB"/>
<path d="M298.482 257.478H306.456V227.715H298.482V257.478Z" fill="#EBEBEB"/>
<path d="M280.153 257.478H288.127V227.715H280.153V257.478Z" fill="#EBEBEB"/>
<path d="M233.89 257.478H241.864V227.715H233.89V257.478Z" fill="#EBEBEB"/>
<path d="M252.872 255.747L260.656 257.477L267.112 228.423L259.327 226.693L252.872 255.747Z" fill="#EBEBEB"/>
<path d="M291.587 257.477H295.574V221.494H291.587V257.477Z" fill="#EBEBEB"/>
<path d="M244.157 257.477H248.144V221.494H244.157V257.477Z" fill="#EBEBEB"/>
<path d="M215.717 230.269H176.863V257.092H215.717V230.269Z" fill="#EBEBEB"/>
<path d="M348.989 241.255H316.439V261.282H348.989V241.255Z" fill="#EBEBEB"/>
<path d="M341.379 223.653H325.104V243.678H341.379V223.653Z" fill="#EBEBEB"/>
<path d="M613.35 197.156H574.639V358.468H613.35V197.156Z" fill="#E0E0E0"/>
<path d="M464.425 358.892H609.195V197.155L464.425 197.155V358.892Z" fill="#E0E0E0"/>
<path d="M459.757 358.892H609.962V197.155L459.757 197.155V358.892Z" fill="#F0F0F0"/>
<path d="M466.171 351.461H603.788V202.314L466.171 202.314V351.461Z" fill="white"/>
<path d="M466.172 351.461H468.725V202.314H466.172V351.461Z" fill="#E0E0E0"/>
<path d="M468.296 309.567V313.59H604.146V309.567H468.296Z" fill="#E0E0E0"/>
<path d="M466.171 309.568H605.945V302.815H466.171V309.568Z" fill="#F0F0F0"/>
<path d="M367 627.66C524.196 627.66 651.629 620.218 651.629 611.037C651.629 601.857 524.196 594.415 367 594.415C209.804 594.415 82.3711 601.857 82.3711 611.037C82.3711 620.218 209.804 627.66 367 627.66Z" fill="#F5F5F5"/>
<path d="M200.297 507.267C200.297 507.267 190.579 499.165 182.247 507.267C173.915 515.369 172.306 565.563 172.306 565.563" stroke="black" stroke-width="0.9446" stroke-miterlimit="10"/>
<path d="M171.616 575.255C171.616 575.255 177.344 516.35 155.776 491.595" stroke="black" stroke-width="0.9446" stroke-miterlimit="10"/>
<path d="M173.668 569.047C173.668 569.047 169.256 501.989 185.432 487.11" stroke="black" stroke-width="0.9446" stroke-miterlimit="10"/>
<path d="M171.615 569.047C171.615 569.047 171.24 524.735 159.218 517.846C147.197 510.958 141.069 533.424 141.069 533.424" stroke="black" stroke-width="0.9446" stroke-miterlimit="10"/>
<path d="M176.365 569.047C176.365 569.047 174.403 535.029 183.718 522.871C193.031 510.713 202.836 528.079 202.836 528.079" stroke="black" stroke-width="0.9446" stroke-miterlimit="10"/>
<path d="M173.119 573.603C173.119 573.603 179.142 494.047 169.174 480.566" stroke="black" stroke-width="0.9446" stroke-miterlimit="10"/>
<path d="M148.924 524.302C148.924 524.302 154.918 526.512 153.136 531.729C151.354 536.946 132.401 545.531 132.401 545.531C132.401 545.531 124.463 538.256 131.753 526.422C139.043 514.59 148.763 520.569 148.924 524.302Z" fill="#F78F30"/>
<path opacity="0.2" d="M148.924 524.302C148.924 524.302 154.918 526.512 153.136 531.729C151.354 536.946 132.401 545.531 132.401 545.531C132.401 545.531 124.463 538.256 131.753 526.422C139.043 514.59 148.763 520.569 148.924 524.302Z" fill="black"/>
<path d="M174.981 514.371C174.981 514.371 168.598 514.104 168.236 519.604C167.873 525.105 182.063 540.324 182.063 540.324C182.063 540.324 192.189 536.663 190.014 522.935C187.84 509.21 176.568 510.987 174.981 514.371Z" fill="#F78F30"/>
<path opacity="0.2" d="M174.981 514.371C174.981 514.371 168.598 514.104 168.236 519.604C167.873 525.105 182.063 540.324 182.063 540.324C182.063 540.324 192.189 536.663 190.014 522.935C187.84 509.21 176.568 510.987 174.981 514.371Z" fill="black"/>
<path d="M180.385 488.039C180.385 488.039 176.129 487.583 176.473 484.99C176.815 482.398 193.016 475.727 202.572 486.514C202.572 486.514 196.452 497.027 187.606 497.165C178.76 497.303 180.385 488.039 180.385 488.039Z" fill="#F78F30"/>
<path opacity="0.2" d="M180.385 488.039C180.385 488.039 176.129 487.583 176.473 484.99C176.815 482.398 193.016 475.727 202.572 486.514C202.572 486.514 196.452 497.027 187.606 497.165C178.76 497.303 180.385 488.039 180.385 488.039Z" fill="black"/>
<path d="M172.456 481.745C172.456 481.745 176.31 483.608 177.389 481.227C178.469 478.846 168.249 464.616 154.432 468.716C154.432 468.716 154.067 480.876 161.502 485.67C168.936 490.466 172.456 481.745 172.456 481.745Z" fill="#F78F30"/>
<path opacity="0.2" d="M172.456 481.745C172.456 481.745 176.31 483.608 177.389 481.227C178.469 478.846 168.249 464.616 154.432 468.716C154.432 468.716 154.067 480.876 161.502 485.67C168.936 490.466 172.456 481.745 172.456 481.745Z" fill="black"/>
<path d="M192.603 522.204C192.603 522.204 189.666 519.833 192.835 518.675C196.005 517.518 211.557 517.847 211.718 533.252C211.718 533.252 193.606 536.262 191.363 530.394C189.123 524.527 192.603 522.204 192.603 522.204Z" fill="#F78F30"/>
<path opacity="0.2" d="M192.603 522.204C192.603 522.204 189.666 519.833 192.835 518.675C196.005 517.518 211.557 517.847 211.718 533.252C211.718 533.252 193.606 536.262 191.363 530.394C189.123 524.527 192.603 522.204 192.603 522.204Z" fill="black"/>
<path d="M155.669 487.653C155.669 487.653 158.606 485.283 155.437 484.124C152.267 482.966 136.715 483.295 136.554 498.7C136.554 498.7 154.666 501.711 156.909 495.842C159.149 489.976 155.669 487.653 155.669 487.653Z" fill="#F78F30"/>
<path opacity="0.2" d="M155.669 487.653C155.669 487.653 158.606 485.283 155.437 484.124C152.267 482.966 136.715 483.295 136.554 498.7C136.554 498.7 154.666 501.711 156.909 495.842C159.149 489.976 155.669 487.653 155.669 487.653Z" fill="black"/>
<path d="M165.244 500.063C165.244 500.063 165.502 497.179 163.175 498.31C160.849 499.44 152.741 508.187 161.145 516.487C161.145 516.487 172.458 508.109 170.419 503.746C168.378 499.381 165.244 500.063 165.244 500.063Z" fill="#F78F30"/>
<path opacity="0.2" d="M165.244 500.063C165.244 500.063 165.502 497.179 163.175 498.31C160.849 499.44 152.741 508.187 161.145 516.487C161.145 516.487 172.458 508.109 170.419 503.746C168.378 499.381 165.244 500.063 165.244 500.063Z" fill="black"/>
<path d="M195.23 504.172C195.23 504.172 193.474 501.871 196.046 501.586C198.616 501.302 210.14 504.377 207.457 515.879C207.457 515.879 193.418 514.823 192.818 510.045C192.214 505.267 195.23 504.172 195.23 504.172Z" fill="#F78F30"/>
<path opacity="0.2" d="M195.23 504.172C195.23 504.172 193.474 501.871 196.046 501.586C198.616 501.302 210.14 504.377 207.457 515.879C207.457 515.879 193.418 514.823 192.818 510.045C192.214 505.267 195.23 504.172 195.23 504.172Z" fill="black"/>
<path d="M149.971 611.749H195.354L201.386 567.618H143.939L149.971 611.749Z" fill="#263238"/>
<path opacity="0.2" d="M149.971 611.749H195.354L201.386 567.618H143.939L149.971 611.749Z" fill="white"/>
<path d="M207.075 564.041V568.234C207.075 571.039 204.801 573.314 201.994 573.314H142.763C139.958 573.314 137.683 571.04 137.683 568.234V564.041H207.075Z" fill="#263238"/>
<path d="M585.176 145.781H543.003C535.83 145.781 530.017 151.596 530.017 158.767V195.47C530.017 202.641 535.832 208.456 543.003 208.456H555.317L552.339 220.044L564.05 208.456H585.176C592.347 208.456 598.162 202.643 598.162 195.47V158.767C598.162 151.596 592.348 145.781 585.176 145.781Z" fill="#CF6300"/>
<path opacity="0.7" d="M585.176 145.781H543.003C535.83 145.781 530.017 151.596 530.017 158.767V195.47C530.017 202.641 535.832 208.456 543.003 208.456H555.317L552.339 220.044L564.05 208.456H585.176C592.347 208.456 598.162 202.643 598.162 195.47V158.767C598.162 151.596 592.348 145.781 585.176 145.781Z" fill="white"/>
<path d="M578.884 191.763C587.058 183.589 587.058 170.336 578.884 162.162C570.71 153.989 557.458 153.989 549.284 162.163C541.11 170.336 541.11 183.589 549.284 191.763C557.458 199.937 570.71 199.937 578.884 191.763Z" fill="#CF6300"/>
<path d="M561.892 186.31C561.327 186.31 560.791 186.062 560.425 185.632L552.213 175.956C551.526 175.146 551.626 173.933 552.435 173.245C553.244 172.559 554.458 172.656 555.147 173.466L561.892 181.414L573.031 168.29C573.72 167.478 574.934 167.381 575.743 168.068C576.553 168.755 576.653 169.969 575.964 170.78L563.358 185.633C562.993 186.062 562.457 186.31 561.892 186.31Z" fill="white"/>
<path d="M577.869 372.222C577.869 372.222 552.304 369.004 513.584 379.619C513.584 379.619 507.351 310.42 508.094 300.915C508.837 291.41 567.875 294.193 567.875 294.193C567.875 294.193 569.399 321.888 573.198 338.598C576.997 355.307 579.816 369.008 577.869 372.222Z" fill="#FF8540"/>
<path opacity="0.2" d="M577.869 372.222C577.869 372.222 552.304 369.004 513.584 379.619C513.584 379.619 507.351 310.42 508.094 300.915C508.837 291.41 567.875 294.193 567.875 294.193C567.875 294.193 569.399 321.888 573.198 338.598C576.997 355.307 579.816 369.008 577.869 372.222Z" fill="black"/>
<path d="M494.904 601.324L505.327 604.274L507.808 588.053L509.143 579.377L498.721 576.426L496.944 588.053L494.904 601.324Z" fill="#F2B2A9"/>
<path d="M554.828 602.175L565.573 603.599L565.676 588.053L565.75 578.393L554.989 576.984L554.916 588.053L554.828 602.175Z" fill="#F2B2A9"/>
<path opacity="0.2" d="M554.989 576.984L554.916 588.053H565.676L565.749 578.393L554.989 576.984Z" fill="black"/>
<path opacity="0.2" d="M496.944 588.053H507.808L509.143 579.377L498.721 576.426L496.944 588.053Z" fill="black"/>
<path d="M448.632 306.533L438.286 303.475L440.175 315.291C440.175 315.291 449.57 317.462 450.485 312.574L448.632 306.533Z" fill="#F2B2A9"/>
<path d="M427.958 306.219L433.032 315.827L440.175 315.29L438.286 303.475L427.958 306.219Z" fill="#F2B2A9"/>
<path d="M462.919 309.553L445.927 305.749L444.382 314.002L459.809 317.765L462.919 309.553Z" fill="#F2B2A9"/>
<path d="M514.347 302.106C514.347 302.106 513.98 302.546 513.349 303.295C511.206 305.805 505.965 311.868 500.592 317.094C496.188 321.351 491.725 325.065 488.819 325.814C480.495 327.957 450.24 319.046 450.24 319.046L453.367 306.774C453.367 306.774 481.552 310.517 483.74 310.517C485.398 310.517 502.545 285.679 506.699 283.638L514.347 302.106Z" fill="#FF8540"/>
<path opacity="0.2" d="M513.349 303.294C511.206 305.805 505.965 311.868 500.592 317.094C501.679 308.491 504.835 300.593 508.989 295.602C509.43 295.074 509.87 294.633 510.31 294.31L513.349 303.294Z" fill="black"/>
<path d="M495.031 599.697L506.868 599.379C507.311 599.367 507.706 599.663 507.818 600.091L510.305 609.622C510.563 610.61 509.838 611.573 508.815 611.583C504.543 611.626 498.364 611.544 492.997 611.688C486.721 611.857 482.733 611.548 475.374 611.746C470.924 611.867 469.528 607.422 471.376 606.967C479.789 604.892 485.288 605.302 492.454 600.607C493.23 600.098 494.096 599.722 495.031 599.697Z" fill="#263238"/>
<path d="M494.019 601.216C494.008 601.221 493.997 601.224 493.985 601.227C492.253 601.62 489.161 602.13 487.934 601.114C487.564 600.807 487.388 600.394 487.408 599.884C487.422 599.58 487.56 599.34 487.808 599.192C489.102 598.414 493.534 600.509 494.035 600.748C494.133 600.795 494.192 600.899 494.18 601.007C494.171 601.102 494.107 601.183 494.019 601.216ZM488.166 599.588C488.132 599.602 488.101 599.615 488.073 599.631C487.972 599.691 487.927 599.773 487.921 599.909C487.907 600.255 488.018 600.521 488.26 600.722C488.948 601.291 490.735 601.347 493.114 600.886C491.368 600.117 488.973 599.285 488.166 599.588Z" fill="#FF8540"/>
<path d="M494.018 601.216C493.958 601.24 493.891 601.24 493.829 601.213C492.501 600.664 489.824 598.401 489.979 597.176C490.015 596.889 490.206 596.529 490.909 596.437C491.432 596.369 491.915 596.504 492.349 596.836C493.769 597.925 494.165 600.823 494.181 600.946C494.193 601.037 494.156 601.125 494.083 601.181C494.063 601.196 494.04 601.208 494.018 601.216ZM490.718 597.003C490.508 597.083 490.494 597.199 490.488 597.244C490.395 597.979 492.223 599.765 493.587 600.528C493.417 599.682 492.969 597.954 492.037 597.24C491.712 596.99 491.366 596.893 490.978 596.943C490.87 596.958 490.784 596.978 490.718 597.003Z" fill="#FF8540"/>
<path d="M555.258 599.697L567.094 599.379C567.537 599.367 567.932 599.663 568.044 600.091L570.531 609.622C570.789 610.61 570.064 611.573 569.041 611.583C564.769 611.626 558.59 611.544 553.223 611.688C546.947 611.857 542.959 611.548 535.6 611.746C531.15 611.867 529.754 607.422 531.602 606.967C540.015 604.892 545.514 605.302 552.68 600.607C553.455 600.098 554.322 599.722 555.258 599.697Z" fill="#263238"/>
<path d="M554.245 601.216C554.235 601.221 554.223 601.224 554.211 601.227C552.477 601.62 549.387 602.13 548.16 601.114C547.79 600.807 547.614 600.394 547.634 599.884C547.648 599.58 547.786 599.34 548.034 599.192C549.328 598.414 553.76 600.509 554.261 600.748C554.359 600.795 554.418 600.899 554.406 601.007C554.398 601.102 554.333 601.183 554.245 601.216ZM548.392 599.588C548.358 599.602 548.327 599.615 548.299 599.631C548.198 599.691 548.153 599.773 548.148 599.909C548.135 600.255 548.245 600.521 548.487 600.722C549.176 601.291 550.962 601.347 553.342 600.886C551.594 600.117 549.199 599.285 548.392 599.588Z" fill="#FF8540"/>
<path d="M554.245 601.216C554.184 601.24 554.117 601.24 554.055 601.213C552.727 600.664 550.05 598.401 550.205 597.176C550.241 596.889 550.432 596.529 551.135 596.437C551.658 596.369 552.142 596.504 552.575 596.836C553.995 597.925 554.391 600.823 554.407 600.946C554.419 601.037 554.383 601.125 554.309 601.181C554.289 601.196 554.267 601.208 554.245 601.216ZM550.944 597.003C550.735 597.083 550.72 597.199 550.714 597.244C550.622 597.979 552.449 599.765 553.813 600.528C553.643 599.682 553.195 597.954 552.263 597.24C551.938 596.99 551.592 596.893 551.206 596.943C551.094 596.958 551.011 596.978 550.944 597.003Z" fill="#FF8540"/>
<path d="M576.996 365.909C582.689 390.595 572.919 584.737 572.919 584.737H554.038L545.965 422.941L516.231 584.737L496.052 583.267C509.243 457.934 520.905 383.105 520.905 383.105L520.877 373.65L576.996 365.909Z" fill="#263238"/>
<path opacity="0.4" d="M496.049 583.267L516.234 584.735L539.634 457.371L545.961 422.947L554.035 584.735H572.913C572.913 584.735 582.69 390.592 576.994 365.915L520.873 373.651L520.902 383.105C520.902 383.105 509.246 457.929 496.049 583.267Z" fill="white"/>
<path d="M566.826 274.501C566.143 286.592 566.661 298.651 567.724 309.882C568.506 318.097 569.6 325.864 570.76 332.872C573.474 349.3 576.557 361.612 576.996 365.909C568.772 367.047 537.778 371.325 520.877 373.65C500.413 316.43 508.12 283.126 508.12 283.126C508.12 283.126 513.972 280.626 520.992 278.722C521.915 278.465 522.86 278.233 523.823 278.011C530.055 276.567 540.466 275.366 547.683 274.719C549.201 274.584 550.744 274.487 552.25 274.416C559.916 274.067 566.826 274.501 566.826 274.501Z" fill="#263238"/>
<path d="M536.787 248.752C537.198 256.612 538.034 271.348 544.563 275.084C544.563 275.084 540.498 282.828 531.704 283.615C525.052 284.211 525.494 277.65 525.494 277.65C529.341 274.774 528.418 269.917 525.489 264.439L536.787 248.752Z" fill="#F2B2A9"/>
<path opacity="0.2" d="M532.184 255.151L525.496 264.431C526.194 265.725 526.818 267.06 527.259 268.396C530.352 267.16 533.878 262.588 533.376 259.16C533.126 257.45 532.652 255.863 532.184 255.151Z" fill="black"/>
<path d="M508.164 232.949C506.881 237.023 507.584 245.394 513.277 242.672C518.97 239.95 510.369 225.947 508.164 232.949Z" fill="#263238"/>
<path d="M537.521 238.455C538.147 248.926 539.048 255.028 534.431 260.955C527.487 269.868 514.036 266.543 510.284 256.441C506.906 247.346 506.451 231.75 516.153 226.471C525.713 221.27 536.896 227.983 537.521 238.455Z" fill="#F2B2A9"/>
<path d="M530.18 232.762V221.063C530.18 221.063 542.631 220.138 542.078 226.511C548.975 229.931 545.714 240.661 536.451 245.922C531.375 241.859 531.955 232.073 531.955 232.073C531.407 232.315 530.805 232.543 530.18 232.762Z" fill="#263238"/>
<path d="M542.587 246.631C542.082 249.409 540.334 251.683 538.398 252.957C535.484 254.874 532.935 252.518 532.831 249.208C532.737 246.228 534.141 241.64 537.505 241.05C540.818 240.47 543.166 243.456 542.587 246.631Z" fill="#F2B2A9"/>
<path d="M522.059 243.129C522.162 243.976 521.796 244.713 521.241 244.774C520.686 244.836 520.153 244.2 520.049 243.353C519.946 242.506 520.312 241.769 520.867 241.708C521.422 241.646 521.956 242.281 522.059 243.129Z" fill="#263238"/>
<path d="M512.463 244.2C512.565 245.047 512.2 245.784 511.645 245.846C511.09 245.908 510.557 245.272 510.453 244.425C510.35 243.578 510.716 242.841 511.271 242.779C511.825 242.718 512.358 243.353 512.463 244.2Z" fill="#263238"/>
<path d="M515.564 244.281C515.564 244.281 514.158 249.205 512.291 251.728C513.933 252.885 516.408 251.959 516.408 251.959L515.564 244.281Z" fill="#DE5753"/>
<path d="M521.353 254.689C521.011 254.776 520.645 254.842 520.256 254.886C520.118 254.901 519.993 254.802 519.977 254.666C519.959 254.528 520.062 254.404 520.196 254.39C523.925 253.968 525.346 251.182 525.36 251.154C525.42 251.031 525.573 250.982 525.696 251.043C525.821 251.104 525.873 251.255 525.811 251.379C525.755 251.49 524.529 253.895 521.353 254.689Z" fill="#263238"/>
<path d="M524.641 239.707C524.472 239.749 524.284 239.702 524.154 239.566C522.596 237.948 520.776 238.259 520.757 238.262C520.484 238.312 520.221 238.132 520.168 237.861C520.115 237.59 520.296 237.329 520.566 237.279C520.661 237.261 522.944 236.869 524.876 238.877C525.068 239.078 525.064 239.394 524.864 239.585C524.799 239.647 524.722 239.686 524.641 239.707Z" fill="#263238"/>
<path d="M507.926 241.37C507.834 241.393 507.734 241.39 507.637 241.357C507.374 241.264 507.235 240.978 507.326 240.718C508.231 238.104 510.47 237.556 510.567 237.518C510.836 237.453 511.109 237.619 511.176 237.886C511.244 238.154 511.082 238.422 510.815 238.49C510.721 238.509 509.001 238.954 508.274 241.051C508.218 241.216 508.083 241.33 507.926 241.37Z" fill="#263238"/>
<path d="M535.708 237.107C535.708 237.107 528.409 234.431 525.017 230.172C525.017 230.172 518.355 231.915 516.99 234.624C516.99 234.624 514.679 232.688 516.41 230.172C516.41 230.172 511.425 231.225 510.435 234.624C510.435 234.624 507.947 233.772 508.095 230.172C508.095 230.172 505.873 231.009 505.171 234.624C505.171 234.624 499.657 223.155 517.844 219.864C517.844 219.864 516.408 219.259 513.584 219.137C513.584 219.137 526.27 214.018 536.336 218.707C546.404 223.397 544.565 232.399 535.708 237.107Z" fill="#263238"/>
<path d="M581.332 375.784L563.731 378.133C563.731 378.133 556.464 327.355 553.264 310.957V275.931L562.468 273.509L569.558 275.931C571.261 281.612 572.759 289.07 574.065 297.364C574.931 302.854 575.709 308.726 576.399 314.672C577.354 322.775 578.146 331.025 578.822 338.747C579.879 351.21 580.583 362.249 580.965 368.973C581.214 373.259 581.332 375.784 581.332 375.784Z" fill="#FF8540"/>
<path d="M553.265 310.953C553.265 310.953 554.727 286.25 562.471 273.504C562.471 273.504 562.277 269.858 560.729 269.277C559.18 268.695 553.265 272.18 553.265 272.18C553.265 272.18 549.578 269.664 548.766 270.825C547.954 271.987 545.994 279.843 553.265 310.953Z" fill="#FF8540"/>
<path opacity="0.7" d="M553.265 310.953C553.265 310.953 554.727 286.25 562.471 273.504C562.471 273.504 562.277 269.858 560.729 269.277C559.18 268.695 553.265 272.18 553.265 272.18C553.265 272.18 549.578 269.664 548.766 270.825C547.954 271.987 545.994 279.843 553.265 310.953Z" fill="white"/>
<path d="M513.21 382.583L515.221 384.036C515.221 384.036 512.314 367.662 513.489 326.264C513.547 324.268 513.621 322.345 513.694 320.51C515.192 285.483 520.623 279.112 520.976 278.73L515.896 280.463L506.692 283.634C503.976 313.522 513.21 382.583 513.21 382.583Z" fill="#FF8540"/>
<path d="M514.007 314.484C514.007 314.484 508.923 290.476 510.435 282.199C511.946 273.923 517.367 277.6 517.367 277.6C517.367 277.6 522.348 273.581 523.826 278.01C523.826 278.01 516.99 282.826 514.007 314.484Z" fill="#FF8540"/>
<path opacity="0.7" d="M514.007 314.484C514.007 314.484 508.923 290.476 510.435 282.199C511.946 273.923 517.367 277.6 517.367 277.6C517.367 277.6 522.348 273.581 523.826 278.01C523.826 278.01 516.99 282.826 514.007 314.484Z" fill="white"/>
<path opacity="0.2" d="M576.4 314.672C568.884 310.458 567.885 299.463 567.885 299.463C568.34 299.287 571.13 298.333 574.066 297.364C574.932 302.854 575.71 308.726 576.4 314.672Z" fill="black"/>
<path opacity="0.2" d="M539.634 457.372L545.961 422.947L544.742 404.729C544.742 404.729 536.066 436.32 539.634 457.372Z" fill="black"/>
<path opacity="0.2" d="M580.965 368.973C576.238 368.65 572.143 368.342 572.143 368.342L571.247 349.126C571.247 349.126 572.774 347.848 576.194 348.215C576.194 348.215 577.736 344.457 578.822 338.747C579.879 351.21 580.584 362.25 580.965 368.973Z" fill="black"/>
<path d="M582.578 338.728L573.374 353.508L580.654 357.693L589.302 344.375L582.578 338.728Z" fill="#F2B2A9"/>
<path d="M569.192 275.746C575.39 276.427 601.717 312.565 602.878 323.461C604.039 334.355 587.413 353.16 587.413 353.16L576.301 346.623C576.301 346.623 587.584 329.286 588.166 324.658C588.747 320.031 567.545 301.062 567.545 301.062C567.545 301.062 565.23 295.489 564.936 287.468C564.641 279.447 569.192 275.746 569.192 275.746Z" fill="#FF8540"/>
<path d="M571.239 349.128C571.239 349.128 580.715 351.162 584.522 357.113C584.522 357.113 580.567 369.517 577.737 370.868C574.908 372.219 567.878 372.219 567.878 372.219C567.878 372.219 567.427 358.421 571.239 349.128Z" fill="#FF8540"/>
</svg>
